<?xml version="1.0" encoding="utf-8"?>
<!-- Generator: Adobe Illustrator 25.1.0, SVG Export Plug-In . SVG Version: 6.00 Build 0)  -->
<svg version="1.1" id="Layer_1" xmlns="http://www.w3.org/2000/svg" xmlns:xlink="http://www.w3.org/1999/xlink" x="0px" y="0px"
	 viewBox="0 0 300 120" style="enable-background:new 0 0 300 120;" xml:space="preserve">
<style type="text/css">
	.st0{fill:url(#SVGID_1_);}
	.st1{fill:url(#SVGID_2_);}
	.st2{fill:url(#SVGID_3_);}
	.st3{fill:url(#SVGID_4_);}
</style>
<g>
	<linearGradient id="SVGID_1_" gradientUnits="userSpaceOnUse" x1="262.8699" y1="12.8418" x2="223.9448" y2="71.4924">
		<stop  offset="0" style="stop-color:#00E99E"/>
		<stop  offset="1" style="stop-color:#008E9E"/>
	</linearGradient>
	<path class="st0" d="M234.7347,46.9182v12.3925c14.9295,0,27.1537-11.7949,27.8493-26.5553h11.541V20.363h-11.5073v-8.3028
		h-12.3925v8.3028H233.407v12.3925h16.7511C249.481,40.6764,242.8279,46.9182,234.7347,46.9182z"/>
	<linearGradient id="SVGID_2_" gradientUnits="userSpaceOnUse" x1="284.4135" y1="27.1398" x2="245.4884" y2="85.7904">
		<stop  offset="0" style="stop-color:#00E99E"/>
		<stop  offset="1" style="stop-color:#008E9E"/>
	</linearGradient>
	<path class="st1" d="M271.2327,52.429c-7.3978,12.9807-21.2537,21.0445-36.1617,21.0445V85.866
		c19.3494,0,37.3313-10.4609,46.929-27.3008L271.2327,52.429z"/>
</g>
<g>
	<path d="M50.5869,39.8896c2.7451-1.4746,5.8828-2.2119,9.4102-2.2119c4.1045,0,7.8184,1.0122,11.1436,3.0356
		c3.3242,2.0249,5.9551,4.8999,7.8926,8.6294c1.9365,3.7295,2.9053,8.0518,2.9053,12.9658c0,4.915-0.9688,9.2656-2.9053,13.0518
		c-1.9375,3.7881-4.5684,6.7217-7.8926,8.8027c-3.3252,2.082-7.0391,3.1221-11.1436,3.1221c-3.5273,0-6.6348-0.7236-9.3232-2.168
		s-4.8721-3.2656-6.5479-5.4639v29.7471H31.9844V38.4585H44.126v6.938C45.6865,43.2002,47.8398,41.3633,50.5869,39.8896z
		 M67.7588,54.8066c-1.1855-2.1104-2.7471-3.7148-4.6836-4.8135c-1.9375-1.0977-4.0322-1.6475-6.2871-1.6475
		c-2.1982,0-4.2646,0.5635-6.2012,1.6904c-1.9375,1.1279-3.499,2.7617-4.6836,4.9004c-1.1855,2.1396-1.7773,4.6543-1.7773,7.5449
		c0,2.8916,0.5918,5.4072,1.7773,7.5459c1.1846,2.1396,2.7461,3.7725,4.6836,4.8994c1.9365,1.1279,4.0029,1.6914,6.2012,1.6914
		c2.2549,0,4.3496-0.5771,6.2871-1.7344c1.9365-1.1562,3.498-2.8037,4.6836-4.9434c1.1846-2.1387,1.7783-4.6836,1.7783-7.6318
		C69.5371,59.418,68.9434,56.918,67.7588,54.8066z"/>
	<path d="M102.9258,38.4585v48.0464H90.7842V38.4585H102.9258z"/>
	<path d="M114.8076,49.4297c2.0234-3.7295,4.8271-6.6201,8.4121-8.6729c3.585-2.0518,7.6895-3.0791,12.3154-3.0791
		c5.9541,0,10.8838,1.4893,14.7871,4.4668c3.9023,2.9785,6.5176,7.1543,7.8486,12.5322h-13.0957
		c-0.6943-2.082-1.8643-3.7148-3.5127-4.9004c-1.6475-1.1846-3.6855-1.7783-6.1143-1.7783c-3.4688,0-6.2158,1.2578-8.2393,3.7725
		c-2.0244,2.5156-3.0352,6.0859-3.0352,10.7109c0,4.5684,1.0107,8.1094,3.0352,10.624c2.0234,2.5156,4.7705,3.7725,8.2393,3.7725
		c4.9141,0,8.123-2.1963,9.627-6.5908h13.0957c-1.3311,5.2031-3.9609,9.3379-7.8926,12.4014
		c-3.9326,3.0654-8.8457,4.5967-14.7432,4.5967c-4.626,0-8.7305-1.0254-12.3154-3.0781c-3.585-2.0518-6.3887-4.9434-8.4121-8.6729
		c-2.0244-3.7295-3.0352-8.0791-3.0352-13.0527C111.7725,57.5098,112.7832,53.1582,114.8076,49.4297z"/>
	<path d="M175.9482,84.207c-3.7002-2.0518-6.6064-4.957-8.7158-8.7168c-2.1113-3.7568-3.166-8.0938-3.166-13.0088
		c0-4.9131,1.085-9.25,3.2529-13.0088c2.168-3.7578,5.1299-6.6631,8.8896-8.7158c3.7568-2.0518,7.9482-3.0791,12.5752-3.0791
		c4.625,0,8.8164,1.0273,12.5752,3.0791c3.7578,2.0527,6.7207,4.958,8.8896,8.7158c2.168,3.7588,3.252,8.0957,3.252,13.0088
		c0,4.915-1.1143,9.252-3.3389,13.0088c-2.2266,3.7598-5.2334,6.665-9.0195,8.7168c-3.7881,2.0527-8.0225,3.0781-12.7061,3.0781
		C183.8105,87.2852,179.6475,86.2598,175.9482,84.207z M194.6377,75.1006c1.9365-1.0693,3.4824-2.6738,4.6396-4.8135
		c1.1562-2.1387,1.7354-4.7402,1.7354-7.8057c0-4.5664-1.2012-8.0791-3.5996-10.5371c-2.3994-2.457-5.334-3.6855-8.8027-3.6855
		s-6.374,1.2285-8.7158,3.6855c-2.3418,2.458-3.5127,5.9707-3.5127,10.5371c0,4.5684,1.1416,8.0811,3.4258,10.5371
		c2.2832,2.459,5.1602,3.6865,8.6289,3.6865C190.6338,76.7051,192.7002,76.1709,194.6377,75.1006z"/>
</g>
</svg>
